<?xml version="1.0" encoding="UTF-8"?>
<svg width="138px" height="61px" viewBox="0 0 138 61" version="1.1" xmlns="http://www.w3.org/2000/svg" xmlns:xlink="http://www.w3.org/1999/xlink">
    <!-- Generator: sketchtool 50.2 (55047) - http://www.bohemiancoding.com/sketch -->
    <title>63FABCFF-070A-4F1D-B7E1-2067E1F36821</title>
    <desc>Created with sketchtool.</desc>
    <defs>
        <polygon id="path-1" points="0.623061911 0.689769231 52.8838067 0.689769231 52.8838067 60.9995308 0.623061911 60.9995308"></polygon>
    </defs>
    <g id="Page" stroke="none" stroke-width="1" fill="none" fill-rule="evenodd">
        <g id="Wholesaler-Backend---Intro" transform="translate(-384.000000, -176.000000)">
            <g id="form" transform="translate(244.000000, 139.000000)">
                <g id="Ayo-Logo" transform="translate(140.000000, 37.000000)">
                    <path d="M100.021561,37.4336365 C100.021561,29.9101906 106.205769,23.8127782 113.83431,23.8127782 C121.462851,23.8127782 127.647059,29.9101906 127.647059,37.4336365 C127.647059,44.9602799 121.462851,51.0576923 113.83431,51.0576923 C106.205769,51.0576923 100.021561,44.9602799 100.021561,37.4336365 Z M90,37.4976758 C90,50.4775657 100.746316,61 113.999209,61 C127.255267,61 138,50.4775657 138,37.4976758 C138,24.5208848 127.255267,14 113.999209,14 C100.746316,14 90,24.5208848 90,37.4976758 Z" id="Fill-1" fill="#BB130F"></path>
                    <path d="M52.618705,53.3098481 L52.5924621,53.2635776 C52.410305,52.8039576 52.164856,52.3798116 51.8730959,51.988055 L32.3483238,17.3746595 L32.3251682,17.3700325 C31.3989456,15.5084173 29.4955582,14 27.2710803,14 C25.6810649,14 24.2485073,15.5007055 23.2204002,15.5007055 L23.2142254,15.5007055 L23.1941572,15.7474814 C22.63688,16.3274046 22.2169924,17.1371378 21.9468441,17.9129393 L1.87251333,51.0934926 L1.88486296,51.1289666 C0.736346955,52.1654251 0,53.663046 0,55.3303252 C0,58.4535819 2.53321877,60.9922883 5.65921999,60.9922883 C7.71697783,60.9922883 9.49841261,59.8895087 10.4894708,58.2515341 L10.5033641,58.2623306 L26.9330091,29.1396974 L42.3731395,58.0587405 L42.3962951,58.0479441 C43.3580229,59.7985102 45.1981184,61 47.3392363,61 C50.4652375,61 53,58.467463 53,55.3442063 C53,54.6270141 52.8518044,53.9468382 52.6094428,53.3144751 L52.618705,53.3098481 Z" id="Fill-3" fill="#BB130F"></path>
                    <g id="Group-7" transform="translate(41.000000, 0.000000)">
                        <mask id="mask-2" fill="white">
                            <use xlink:href="#path-1"></use>
                        </mask>
                        <g id="Clip-6"></g>
                        <path d="M51.4864932,10.1849667 C52.3449734,9.17612051 52.8838067,7.87165897 52.8838067,6.4248641 C52.8838067,3.25755641 50.3844725,0.6893 47.3021631,0.6893 C45.4116801,0.6893 43.7479941,1.66060769 42.7373011,3.13868462 L42.7327347,3.13555641 L42.7159913,3.16683846 C42.4770172,3.52188974 42.2806627,3.90665897 42.1238835,4.31332564 L27.3866396,32.8347359 L11.3799409,4.30081282 C11.1927192,3.81906923 10.9354795,3.37799231 10.6340982,2.97132564 L10.5656024,2.84776154 L10.5442926,2.85871026 C9.52142255,1.54642821 7.96885193,0.6893 6.20470551,0.6893 C3.12239619,0.6893 0.623061911,3.25755641 0.623061911,6.4248641 C0.623061911,7.08491538 0.753964925,7.70742821 0.953363701,8.29709487 L0.935098164,8.30804359 L0.980762006,8.38781282 C1.22278037,9.06506923 1.58200259,9.67663333 2.03864101,10.2068641 L21.9328548,44.4200436 L21.9526424,55.4031718 C21.9495982,55.4688641 21.9754743,56.7373513 21.9754743,56.7373513 C22.1931387,58.3014538 24.2784541,60.9995308 26.8478063,60.9995308 C29.5632827,60.9995308 31.7642799,58.5610949 31.7642799,55.7723 L31.6759965,44.4169154 L51.4864932,10.1849667 Z" id="Fill-5" fill="#BB130F" mask="url(#mask-2)"></path>
                    </g>
                </g>
            </g>
        </g>
    </g>
</svg>