<?xml version="1.0" encoding="UTF-8"?>
<svg width="70px" height="31px" viewBox="0 0 70 31" version="1.1" xmlns="http://www.w3.org/2000/svg" xmlns:xlink="http://www.w3.org/1999/xlink">
    <!-- Generator: sketchtool 50.2 (55047) - http://www.bohemiancoding.com/sketch -->
    <title>0636CC8C-5EDD-4D28-AB89-881885B1AE20</title>
    <desc>Created with sketchtool.</desc>
    <defs>
        <polygon id="path-1" points="0.317408898 0.350538462 26.9408072 0.350538462 26.9408072 30.9997615 0.317408898 30.9997615"></polygon>
    </defs>
    <g id="Page" stroke="none" stroke-width="1" fill="none" fill-rule="evenodd">
        <g id="Wholesaler-Frontend---OTC---Select-Customer---Order" transform="translate(-26.000000, -17.000000)">
            <g id="SideBar">
                <g id="Ayo-Logo" transform="translate(26.000000, 17.000000)">
                    <path d="M51.0107803,18.9661123 C51.0107803,15.1243526 54.1028844,12.0107803 57.9171549,12.0107803 C61.7314253,12.0107803 64.8235294,15.1243526 64.8235294,18.9661123 C64.8235294,22.8095046 61.7314253,25.9230769 57.9171549,25.9230769 C54.1028844,25.9230769 51.0107803,22.8095046 51.0107803,18.9661123 Z M46,18.9988132 C46,25.6268421 51.3731579,31 57.9996044,31 C64.6276333,31 70,25.6268421 70,18.9988132 C70,12.3723667 64.6276333,7 57.9996044,7 C51.3731579,7 46,12.3723667 46,18.9988132 Z" id="Fill-1" fill="#FFFFFF"></path>
                    <path d="M26.8057554,27.0731139 L26.7923863,27.0494864 C26.6995893,26.8147869 26.5745493,26.5982017 26.4259168,26.3981557 L16.4793348,8.7232304 L16.4675385,8.72086765 C15.9956893,7.77025564 15.0260391,7 13.8928145,7 C13.0828066,7 12.3530131,7.76631772 11.8292605,7.76631772 L11.8261148,7.76631772 L11.8158914,7.89233092 C11.5319955,8.18846192 11.3180905,8.6019427 11.1804678,8.99809668 L0.953921883,25.9413579 L0.960213206,25.9594723 C0.375120147,26.4887277 0,27.2534703 0,28.1048469 C0,29.6997014 1.29050767,30.9960621 2.88299886,30.9960621 C3.9312906,30.9960621 4.83881397,30.4329406 5.34369266,29.5965281 L5.3507704,29.6020412 L13.7205895,14.7309093 L21.5863164,29.4980803 L21.5981126,29.4925672 C22.0880494,30.3864733 23.0254566,31 24.1162147,31 C25.7087059,31 27,29.7067896 27,28.1119352 C27,27.7457093 26.9245041,27.3983855 26.8010369,27.0754767 L26.8057554,27.0731139 Z" id="Fill-3" fill="#FFFFFF"></path>
                    <g id="Group-7" transform="translate(21.000000, 0.000000)">
                        <mask id="mask-2" fill="white">
                            <use xlink:href="#path-1"></use>
                        </mask>
                        <g id="Clip-6"></g>
                        <path d="M26.2289682,5.17596667 C26.6663072,4.66327436 26.9408072,4.00035128 26.9408072,3.26509487 C26.9408072,1.65547949 25.6675614,0.3503 24.0973284,0.3503 C23.1342521,0.3503 22.286714,0.843915385 21.7718326,1.59506923 L21.7695064,1.59347949 L21.7609767,1.60937692 C21.6392352,1.78981282 21.5392055,1.98535128 21.4593369,2.19201795 L13.9516843,16.6865051 L5.79732839,2.18565897 C5.70195127,1.94083846 5.57090466,1.71668462 5.41737076,1.51001795 L5.38247669,1.44722308 L5.37162076,1.45278718 C4.85053602,0.785889744 4.05960381,0.3503 3.16088771,0.3503 C1.59065466,0.3503 0.317408898,1.65547949 0.317408898,3.26509487 C0.317408898,3.60053077 0.384095339,3.91688974 0.485675847,4.21655641 L0.476370763,4.22212051 L0.499633475,4.26265897 C0.622925847,4.60683846 0.805925847,4.91763333 1.03855297,5.18709487 L11.1733411,22.5741205 L11.1834216,28.1557103 C11.1818708,28.1890949 11.195053,28.8337359 11.195053,28.8337359 C11.3059386,29.6286077 12.3682691,30.9997615 13.6771843,30.9997615 C15.0605403,30.9997615 16.181803,29.7605564 16.181803,28.3433 L16.1368284,22.5725308 L26.2289682,5.17596667 Z" id="Fill-5" fill="#FFFFFF" mask="url(#mask-2)"></path>
                    </g>
                </g>
            </g>
        </g>
    </g>
</svg>