<svg width="19" height="18" viewBox="0 0 19 18" fill="none" xmlns="http://www.w3.org/2000/svg">
<path d="M15.6078 1.8H14.7195V0.9C14.7195 0.36 14.3641 0 13.8311 0C13.2982 0 12.9428 0.36 12.9428 0.9V1.8H5.83634V0.9C5.83634 0.36 5.48102 0 4.94803 0C4.41504 0 4.05972 0.36 4.05972 0.9V1.8H3.1714C1.66127 1.8 0.50647 2.97 0.50647 4.5V5.4H18.2727V4.5C18.2727 2.97 17.1179 1.8 15.6078 1.8ZM0.50647 15.3C0.50647 16.83 1.66127 18 3.1714 18H15.6078C17.1179 18 18.2727 16.83 18.2727 15.3V7.2H0.50647V15.3ZM13.8311 9C14.3641 9 14.7195 9.36 14.7195 9.9C14.7195 10.44 14.3641 10.8 13.8311 10.8C13.2982 10.8 12.9428 10.44 12.9428 9.9C12.9428 9.36 13.2982 9 13.8311 9ZM13.8311 12.6C14.3641 12.6 14.7195 12.96 14.7195 13.5C14.7195 14.04 14.3641 14.4 13.8311 14.4C13.2982 14.4 12.9428 14.04 12.9428 13.5C12.9428 12.96 13.2982 12.6 13.8311 12.6ZM9.38959 9C9.92257 9 10.2779 9.36 10.2779 9.9C10.2779 10.44 9.92257 10.8 9.38959 10.8C8.8566 10.8 8.50128 10.44 8.50128 9.9C8.50128 9.36 8.8566 9 9.38959 9ZM9.38959 12.6C9.92257 12.6 10.2779 12.96 10.2779 13.5C10.2779 14.04 9.92257 14.4 9.38959 14.4C8.8566 14.4 8.50128 14.04 8.50128 13.5C8.50128 12.96 8.8566 12.6 9.38959 12.6ZM4.94803 9C5.48102 9 5.83634 9.36 5.83634 9.9C5.83634 10.44 5.48102 10.8 4.94803 10.8C4.41504 10.8 4.05972 10.44 4.05972 9.9C4.05972 9.36 4.41504 9 4.94803 9ZM4.94803 12.6C5.48102 12.6 5.83634 12.96 5.83634 13.5C5.83634 14.04 5.48102 14.4 4.94803 14.4C4.41504 14.4 4.05972 14.04 4.05972 13.5C4.05972 12.96 4.41504 12.6 4.94803 12.6Z" fill="#666666"/>
<path d="M15.6078 1.8H14.7195V0.9C14.7195 0.36 14.3641 0 13.8311 0C13.2982 0 12.9428 0.36 12.9428 0.9V1.8H5.83634V0.9C5.83634 0.36 5.48102 0 4.94803 0C4.41504 0 4.05972 0.36 4.05972 0.9V1.8H3.1714C1.66127 1.8 0.50647 2.97 0.50647 4.5V5.4H18.2727V4.5C18.2727 2.97 17.1179 1.8 15.6078 1.8ZM0.50647 15.3C0.50647 16.83 1.66127 18 3.1714 18H15.6078C17.1179 18 18.2727 16.83 18.2727 15.3V7.2H0.50647V15.3ZM13.8311 9C14.3641 9 14.7195 9.36 14.7195 9.9C14.7195 10.44 14.3641 10.8 13.8311 10.8C13.2982 10.8 12.9428 10.44 12.9428 9.9C12.9428 9.36 13.2982 9 13.8311 9ZM13.8311 12.6C14.3641 12.6 14.7195 12.96 14.7195 13.5C14.7195 14.04 14.3641 14.4 13.8311 14.4C13.2982 14.4 12.9428 14.04 12.9428 13.5C12.9428 12.96 13.2982 12.6 13.8311 12.6ZM9.38959 9C9.92257 9 10.2779 9.36 10.2779 9.9C10.2779 10.44 9.92257 10.8 9.38959 10.8C8.8566 10.8 8.50128 10.44 8.50128 9.9C8.50128 9.36 8.8566 9 9.38959 9ZM9.38959 12.6C9.92257 12.6 10.2779 12.96 10.2779 13.5C10.2779 14.04 9.92257 14.4 9.38959 14.4C8.8566 14.4 8.50128 14.04 8.50128 13.5C8.50128 12.96 8.8566 12.6 9.38959 12.6ZM4.94803 9C5.48102 9 5.83634 9.36 5.83634 9.9C5.83634 10.44 5.48102 10.8 4.94803 10.8C4.41504 10.8 4.05972 10.44 4.05972 9.9C4.05972 9.36 4.41504 9 4.94803 9ZM4.94803 12.6C5.48102 12.6 5.83634 12.96 5.83634 13.5C5.83634 14.04 5.48102 14.4 4.94803 14.4C4.41504 14.4 4.05972 14.04 4.05972 13.5C4.05972 12.96 4.41504 12.6 4.94803 12.6Z" fill="#666666"/>
<path d="M15.6078 1.8H14.7195V0.9C14.7195 0.36 14.3641 0 13.8311 0C13.2982 0 12.9428 0.36 12.9428 0.9V1.8H5.83634V0.9C5.83634 0.36 5.48102 0 4.94803 0C4.41504 0 4.05972 0.36 4.05972 0.9V1.8H3.1714C1.66127 1.8 0.50647 2.97 0.50647 4.5V5.4H18.2727V4.5C18.2727 2.97 17.1179 1.8 15.6078 1.8ZM0.50647 15.3C0.50647 16.83 1.66127 18 3.1714 18H15.6078C17.1179 18 18.2727 16.83 18.2727 15.3V7.2H0.50647V15.3ZM13.8311 9C14.3641 9 14.7195 9.36 14.7195 9.9C14.7195 10.44 14.3641 10.8 13.8311 10.8C13.2982 10.8 12.9428 10.44 12.9428 9.9C12.9428 9.36 13.2982 9 13.8311 9ZM13.8311 12.6C14.3641 12.6 14.7195 12.96 14.7195 13.5C14.7195 14.04 14.3641 14.4 13.8311 14.4C13.2982 14.4 12.9428 14.04 12.9428 13.5C12.9428 12.96 13.2982 12.6 13.8311 12.6ZM9.38959 9C9.92257 9 10.2779 9.36 10.2779 9.9C10.2779 10.44 9.92257 10.8 9.38959 10.8C8.8566 10.8 8.50128 10.44 8.50128 9.9C8.50128 9.36 8.8566 9 9.38959 9ZM9.38959 12.6C9.92257 12.6 10.2779 12.96 10.2779 13.5C10.2779 14.04 9.92257 14.4 9.38959 14.4C8.8566 14.4 8.50128 14.04 8.50128 13.5C8.50128 12.96 8.8566 12.6 9.38959 12.6ZM4.94803 9C5.48102 9 5.83634 9.36 5.83634 9.9C5.83634 10.44 5.48102 10.8 4.94803 10.8C4.41504 10.8 4.05972 10.44 4.05972 9.9C4.05972 9.36 4.41504 9 4.94803 9ZM4.94803 12.6C5.48102 12.6 5.83634 12.96 5.83634 13.5C5.83634 14.04 5.48102 14.4 4.94803 14.4C4.41504 14.4 4.05972 14.04 4.05972 13.5C4.05972 12.96 4.41504 12.6 4.94803 12.6Z" fill="#666666"/>
<path d="M15.6078 1.8H14.7195V0.9C14.7195 0.36 14.3641 0 13.8311 0C13.2982 0 12.9428 0.36 12.9428 0.9V1.8H5.83634V0.9C5.83634 0.36 5.48102 0 4.94803 0C4.41504 0 4.05972 0.36 4.05972 0.9V1.8H3.1714C1.66127 1.8 0.50647 2.97 0.50647 4.5V5.4H18.2727V4.5C18.2727 2.97 17.1179 1.8 15.6078 1.8ZM0.50647 15.3C0.50647 16.83 1.66127 18 3.1714 18H15.6078C17.1179 18 18.2727 16.83 18.2727 15.3V7.2H0.50647V15.3ZM13.8311 9C14.3641 9 14.7195 9.36 14.7195 9.9C14.7195 10.44 14.3641 10.8 13.8311 10.8C13.2982 10.8 12.9428 10.44 12.9428 9.9C12.9428 9.36 13.2982 9 13.8311 9ZM13.8311 12.6C14.3641 12.6 14.7195 12.96 14.7195 13.5C14.7195 14.04 14.3641 14.4 13.8311 14.4C13.2982 14.4 12.9428 14.04 12.9428 13.5C12.9428 12.96 13.2982 12.6 13.8311 12.6ZM9.38959 9C9.92257 9 10.2779 9.36 10.2779 9.9C10.2779 10.44 9.92257 10.8 9.38959 10.8C8.8566 10.8 8.50128 10.44 8.50128 9.9C8.50128 9.36 8.8566 9 9.38959 9ZM9.38959 12.6C9.92257 12.6 10.2779 12.96 10.2779 13.5C10.2779 14.04 9.92257 14.4 9.38959 14.4C8.8566 14.4 8.50128 14.04 8.50128 13.5C8.50128 12.96 8.8566 12.6 9.38959 12.6ZM4.94803 9C5.48102 9 5.83634 9.36 5.83634 9.9C5.83634 10.44 5.48102 10.8 4.94803 10.8C4.41504 10.8 4.05972 10.44 4.05972 9.9C4.05972 9.36 4.41504 9 4.94803 9ZM4.94803 12.6C5.48102 12.6 5.83634 12.96 5.83634 13.5C5.83634 14.04 5.48102 14.4 4.94803 14.4C4.41504 14.4 4.05972 14.04 4.05972 13.5C4.05972 12.96 4.41504 12.6 4.94803 12.6Z" fill="#666666"/>
</svg>
